<svg width="100%" height="100%" viewBox="0 0 56 56" fill="none" xmlns="http://www.w3.org/2000/svg">
<path d="M11.7101 16.8029C14.4894 16.8029 16.7425 14.5498 16.7425 11.7705C16.7425 8.99123 14.4894 6.73816 11.7101 6.73816C8.9308 6.73816 6.67773 8.99123 6.67773 11.7705C6.67773 14.5498 8.9308 16.8029 11.7101 16.8029Z" fill="#242A41"/>
<path d="M21.4957 20.6163V48.5358H30.1643V34.729C30.1643 31.0858 30.8497 27.5576 35.3669 27.5576C39.8219 27.5576 39.8771 31.7229 39.8771 34.959V48.5381H48.5504V33.2271C48.5504 25.7061 46.9312 19.9263 38.1406 19.9263C33.9202 19.9263 31.0912 22.2424 29.9343 24.4342H29.817V20.6163H21.4957ZM7.36914 20.6163H16.0516V48.5358H7.36914V20.6163Z" fill="#242A41"/>
</svg>
