<svg width="236" height="38" viewBox="0 0 236 38" fill="none" xmlns="http://www.w3.org/2000/svg">
<path d="M190.112 27.0212C189.842 29.0016 189.217 30.9172 188.266 32.676C187.289 34.5487 185.687 36.0211 183.737 36.8379C182.703 37.2254 181.602 37.4022 180.498 37.3582C179.424 37.3012 178.362 37.1035 177.339 36.7701C175.36 36.1181 173.489 35.1726 171.791 33.9653C170.977 33.3733 170.199 32.7352 169.458 32.0539C168.745 31.4206 167.998 30.8212 167.25 30.2218C165.756 29.0908 164.227 27.8807 162.665 26.8289C159.54 24.6318 156.263 22.6589 152.859 20.9253C146.065 17.5324 138.716 14.8746 131.277 14.4109C130.349 14.4109 129.42 14.3544 128.514 14.4109C127.635 14.4468 126.761 14.5527 125.899 14.7276C125.738 14.7637 125.579 14.8091 125.423 14.8633C125.31 14.8633 125.264 14.9877 125.423 14.7955C125.557 14.6238 125.632 14.4137 125.638 14.1961C125.639 14.0601 125.612 13.9254 125.559 13.8002C125.559 13.7324 125.559 13.8002 125.695 13.9359C126.353 14.4766 127.067 14.9467 127.823 15.3383C131.118 17.1592 134.719 18.7312 138.173 20.7217C139.93 21.6717 141.618 22.745 143.223 23.9336C144.078 24.586 144.867 25.3209 145.578 26.1277C146.438 27.0515 147.025 28.1942 147.276 29.4301C147.373 30.117 147.335 30.8162 147.163 31.4885C146.944 32.4113 146.527 33.2756 145.94 34.0216C145.354 34.7675 144.612 35.3773 143.766 35.8087C141.76 36.7767 139.536 37.2091 137.312 37.0641C133.237 36.8049 129.236 35.8565 125.48 34.2593C121.797 32.7503 118.248 30.9343 114.87 28.8307C111.521 26.734 108.296 24.4456 105.211 21.9771C103.761 20.7984 102.22 19.7358 100.603 18.7991C99.0658 17.9226 97.4319 17.2281 95.7339 16.7294C94.9484 16.5083 94.1256 16.4514 93.3171 16.5623C92.5085 16.6732 91.7316 16.9496 91.0348 17.3741C89.553 18.4112 88.3416 19.7879 87.5021 21.389C86.5396 23.0176 85.7696 24.7818 84.943 26.5688C84.5128 27.4509 84.0938 28.3331 83.5842 29.1813C83.1374 30.0696 82.4409 30.8085 81.5801 31.3075C82.3361 30.7267 82.9098 29.9418 83.2332 29.0456C83.6069 28.1634 83.9126 27.2473 84.207 26.3199C84.7698 24.4356 85.4313 22.5821 86.1886 20.767C86.9617 18.8061 88.1969 17.0603 89.7893 15.6776C90.6803 14.9659 91.7158 14.4564 92.8239 14.1847C93.9359 13.9198 95.0868 13.8585 96.2208 14.0038C98.3414 14.2688 100.376 15.0029 102.177 16.1526C103.917 17.1834 105.582 18.3361 107.159 19.6021C110.145 21.9996 113.272 24.2164 116.523 26.2408C119.747 28.2596 123.137 30 126.657 31.4432C130.075 32.9031 133.716 33.775 137.425 34.0218C139.101 34.1443 140.78 33.8408 142.306 33.1397C142.926 32.8175 143.446 32.3326 143.812 31.7373C144.132 31.2066 144.282 30.5911 144.242 29.973C144.075 29.3016 143.736 28.6855 143.257 28.1861C142.679 27.536 142.038 26.945 141.343 26.4218C139.848 25.3036 138.273 24.2944 136.633 23.4021C133.293 21.5247 129.839 20.0092 126.272 18.0187C125.298 17.5151 124.386 16.9003 123.555 16.1865C123.235 15.91 122.97 15.5763 122.773 15.2026C122.59 14.8547 122.5 14.4648 122.513 14.0716C122.525 13.6101 122.688 13.1653 122.977 12.805C123.307 12.4161 123.732 12.1199 124.211 11.9454C124.51 11.8282 124.816 11.7337 125.129 11.6627C126.172 11.4419 127.233 11.3094 128.299 11.2668C129.341 11.2668 130.36 11.2668 131.379 11.2668C135.394 11.5305 139.361 12.2903 143.189 13.5288C146.979 14.7325 150.664 16.2455 154.206 18.0526C157.74 19.8601 161.145 21.9082 164.397 24.1824C166.028 25.3134 167.601 26.5009 169.153 27.7337C169.923 28.3444 170.681 28.989 171.417 29.6224L173.625 31.3754C174.998 32.5676 176.52 33.5753 178.155 34.3724C179.705 35.2549 181.535 35.5122 183.269 35.0918C185.004 34.6713 186.512 33.6048 187.485 32.1105C188.657 30.584 189.547 28.8604 190.112 27.0212V27.0212Z" fill="#801FFF"/>
<path d="M4.22027 30.5046C7.03594 24.6462 9.8818 19.259 12.7579 14.3431C15.1272 10.1864 17.7555 6.18252 20.6274 2.35496L21.1483 1.65374C21.399 1.20494 21.7522 0.821546 22.1791 0.534647C22.606 0.247747 23.0947 0.0654344 23.6054 0.00254084C23.9644 -0.0111902 24.3235 0.0307949 24.6697 0.126965C24.9075 0.217442 25.0207 0.353152 25.0207 0.545415C24.7808 1.53026 24.2802 2.43257 23.5714 3.15793C22.9146 3.99485 22.4391 4.69604 22.0541 5.2389C20.0159 8.30004 17.5702 12.3338 14.7167 17.3402C11.8633 22.3466 8.92311 27.7413 5.89608 33.5243C5.40896 33.8694 4.86465 34.1259 4.28821 34.282C3.61177 34.4821 2.91024 34.5849 2.20477 34.5874C1.84195 34.6162 1.47939 34.5286 1.16984 34.3374C0.860289 34.1462 0.6199 33.8614 0.483658 33.5243C0.0813469 31.898 -0.0713786 30.2201 0.0307251 28.548V25.9694C0.0383473 22.6476 0.231149 19.3287 0.608212 16.0283C0.978099 12.5902 1.59709 8.64311 2.46519 4.18711C2.54449 3.67953 2.75967 3.2028 3.08797 2.80734C3.21542 2.66038 3.37398 2.54354 3.55218 2.4653C3.73039 2.38706 3.92377 2.34939 4.11835 2.35496C4.77433 2.43733 5.39815 2.68654 5.93005 3.07876C6.70002 3.55376 7.06236 4.01745 7.06236 4.44721C6.95626 5.24007 6.78585 6.02302 6.55282 6.78831C4.90926 13.0661 4.06469 19.5258 4.0391 26.0147C4.0391 26.8063 4.0391 27.5754 4.0391 28.2766C4.0391 28.9778 4.16366 29.7695 4.22027 30.5046Z" fill="#801FFF"/>
<path d="M18.409 34.1124C17.9786 34.1247 17.5521 34.0273 17.1698 33.8294C16.7875 33.6315 16.4619 33.3397 16.2237 32.9814C15.6323 32.0305 15.3477 30.9212 15.4084 29.8034C15.4431 27.9872 15.7056 26.1824 16.1897 24.4313C16.4815 22.9827 17.0013 21.5895 17.7296 20.3033C17.9714 19.9523 18.3153 19.6838 18.7147 19.5343C19.1915 19.3351 19.7039 19.2351 20.2207 19.2402C20.485 19.2274 20.7454 19.3074 20.9567 19.4664C21.0489 19.543 21.1216 19.6404 21.1688 19.7505C21.2161 19.8605 21.2365 19.9802 21.2285 20.0997C21.1442 20.4874 21.0229 20.8662 20.8661 21.2307C20.7076 21.6378 20.5831 21.9885 20.4698 22.2599L20.1415 23.2099C18.6695 27.2022 17.9448 29.7129 17.9448 30.7534C17.9183 31.0595 17.9939 31.3657 18.1599 31.6242C18.2436 31.7236 18.3501 31.8013 18.4704 31.8506C18.5907 31.8998 18.7212 31.9192 18.8506 31.907C19.296 31.907 19.9414 31.4772 20.7869 30.6177C21.7476 29.5856 22.5871 28.4472 23.2893 27.2248L23.7309 26.3992C24.0253 25.8224 24.2517 25.5397 24.3989 25.5397C24.6487 25.5763 24.8792 25.6952 25.0535 25.8776C25.2279 26.0599 25.3363 26.2953 25.3614 26.5462C25.1198 27.1454 24.8162 27.7178 24.4555 28.254C24.1611 28.7516 23.9347 29.1474 23.7535 29.4415C23.0356 30.7838 22.111 32.0051 21.0133 33.0606C20.3058 33.7216 19.3777 34.0965 18.409 34.1124V34.1124ZM20.4245 17.8605C19.9581 17.8791 19.5003 17.7307 19.1337 17.442C18.9697 17.304 18.8395 17.1303 18.7532 16.9343C18.6668 16.7382 18.6266 16.525 18.6355 16.311C18.6466 15.9798 18.7457 15.6575 18.9229 15.3772C19.1 15.0969 19.3486 14.8689 19.6432 14.7164C20.2674 14.3114 20.9938 14.0917 21.738 14.083C22.1199 14.0551 22.4976 14.1767 22.7911 14.4223C22.9108 14.5552 23.0025 14.7108 23.0609 14.8798C23.1193 15.0489 23.143 15.2279 23.1308 15.4063C23.1203 15.7307 23.0401 16.0492 22.8956 16.34C22.751 16.6307 22.5454 16.887 22.2928 17.0914C21.799 17.5925 21.1284 17.8807 20.4245 17.8944V17.8605Z" fill="#801FFF"/>
<path d="M26.4372 31.5112C28.3988 27.2081 30.5911 23.0137 33.0045 18.9462C34.318 16.967 35.4277 15.9831 36.4015 15.9831C36.7848 15.9611 37.1688 16.011 37.5338 16.1301C37.6428 16.1711 37.7358 16.2459 37.799 16.3437C37.8622 16.4414 37.8922 16.5568 37.8848 16.6729C37.8848 16.7973 37.6357 17.114 37.1601 17.6342L36.9789 17.8378C35.2238 20.5521 33.582 23.1873 32.1553 25.7545C30.7286 28.3218 29.4717 30.6177 28.4527 32.71C28.2472 33.2556 27.8748 33.7226 27.3883 34.0445C26.8445 34.2869 26.2504 34.3955 25.6559 34.3612C24.818 34.3612 24.2744 34.1915 24.048 33.8296C23.7153 32.8209 23.5958 31.7541 23.697 30.6969C23.6478 27.8858 23.9637 25.0803 24.6368 22.3504C25.2709 20.0319 25.9616 18.8783 26.7202 18.8783C27.2382 18.9181 27.7337 19.1067 28.1469 19.4212C28.6791 19.7831 28.9396 20.1111 28.9396 20.4051C28.9281 20.6094 28.8573 20.8059 28.7357 20.9706C28.5445 21.2391 28.3284 21.489 28.0903 21.717C27.5765 23.0479 27.2156 24.4328 27.0146 25.845C26.718 27.7217 26.5252 29.6133 26.4372 31.5112V31.5112Z" fill="#801FFF"/>
<path d="M37.6018 34.1124C37.1717 34.1225 36.746 34.0242 36.364 33.8266C35.982 33.6289 35.6561 33.3382 35.4164 32.9814C34.829 32.0293 34.5484 30.92 34.6125 29.8034C34.6427 27.9876 34.9014 26.1827 35.3824 24.4313C35.6767 22.9818 36.2004 21.5883 36.9337 20.3033C37.1704 19.9475 37.5159 19.6777 37.9188 19.5343C38.3912 19.3338 38.9002 19.2337 39.4135 19.2402C39.6777 19.2274 39.9381 19.3074 40.1495 19.4664C40.2416 19.543 40.3143 19.6404 40.3616 19.7505C40.4088 19.8606 40.4293 19.9802 40.4212 20.0997C40.337 20.4874 40.2156 20.8662 40.0589 21.2307C39.9003 21.6379 39.7758 21.9885 39.6739 22.2599L39.3342 23.2099C37.8697 27.206 37.1375 29.7205 37.1375 30.7534C37.1167 31.059 37.1919 31.3634 37.3527 31.6242C37.4381 31.7215 37.5449 31.7976 37.6647 31.8467C37.7846 31.8958 37.9142 31.9164 38.0434 31.907C38.4963 31.907 39.1417 31.4772 39.9796 30.6177C40.9474 29.5914 41.7876 28.4522 42.482 27.2248C42.5952 27.0326 42.7424 26.7611 42.9236 26.3992C43.218 25.8224 43.4445 25.5397 43.603 25.5397C43.8457 25.5567 44.0726 25.666 44.2371 25.845C44.3383 25.9315 44.4191 26.0391 44.4739 26.1603C44.5287 26.2815 44.5561 26.4133 44.5541 26.5462C44.3125 27.1454 44.0089 27.7178 43.6483 28.254L42.9576 29.4415C42.2358 30.7813 41.3115 32.002 40.2174 33.0606C39.507 33.7242 38.5743 34.0993 37.6018 34.1124V34.1124ZM39.6173 17.8605C39.1508 17.8791 38.693 17.7307 38.3264 17.442C38.1638 17.3035 38.0353 17.1294 37.9509 16.9332C37.8665 16.7371 37.8284 16.5242 37.8395 16.311C37.8506 15.9798 37.9498 15.6575 38.1269 15.3772C38.304 15.0969 38.5527 14.8689 38.8473 14.7164C39.4709 14.3102 40.1977 14.0905 40.9421 14.0831C41.1295 14.0682 41.3181 14.0906 41.4968 14.1488C41.6756 14.207 41.8411 14.3 41.9838 14.4223C42.1078 14.5528 42.2031 14.7077 42.2635 14.8772C42.324 15.0466 42.3482 15.2269 42.3348 15.4063C42.3244 15.7307 42.2442 16.0492 42.0996 16.34C41.955 16.6307 41.7495 16.887 41.4969 17.0914C40.9969 17.5903 40.3238 17.8778 39.6173 17.8944V17.8605Z" fill="#801FFF"/>
<path d="M49.5139 29.6789C48.808 31.0534 47.8518 32.2845 46.6945 33.3093C45.8826 34.0779 44.8224 34.5312 43.7052 34.5873C43.3367 34.5992 42.9706 34.5246 42.6363 34.3694C42.3019 34.2142 42.0087 33.9828 41.7803 33.6938C41.2698 33.0532 41.0083 32.2499 41.0443 31.4319C41.0644 30.0806 41.2975 28.741 41.735 27.4622C42.2588 25.9086 42.9537 24.4179 43.8071 23.0175C44.5429 21.6197 45.5074 20.3545 46.6605 19.274C47.4177 18.4941 48.4305 18.0124 49.5139 17.9169C49.9684 17.9123 50.4152 18.0336 50.8048 18.2675C51.2668 18.569 51.6697 18.9522 51.9937 19.3984C52.2653 19.3154 52.5412 19.2475 52.8203 19.1949C53.0185 19.1603 53.2192 19.1414 53.4204 19.1383C53.9561 19.1148 54.4859 19.257 54.9377 19.5455C55.1135 19.6388 55.2616 19.7769 55.367 19.9457C55.4723 20.1144 55.5312 20.308 55.5378 20.5068C55.3962 21.1346 55.1595 21.7372 54.8358 22.2937C54.4395 23.0627 54.1337 23.6961 53.9073 24.205C53.315 25.49 52.7971 26.8079 52.356 28.1521C52.0616 28.9578 51.8713 29.7977 51.7899 30.6515C51.7743 30.8383 51.8095 31.0259 51.8918 31.1944C51.9338 31.2493 51.9891 31.2927 52.0524 31.3204C52.1158 31.3481 52.1852 31.3592 52.2541 31.3527C52.5146 31.3527 52.8769 31.0926 53.3864 30.561C54.2452 29.5404 55.0502 28.4759 55.7982 27.3717C56.0134 27.0777 56.2512 26.7158 56.5229 26.2408C56.7947 25.7658 57.0325 25.5509 57.1683 25.5509C57.3042 25.5509 57.5533 25.6866 57.7458 25.958C57.9092 26.1792 58.0073 26.4417 58.0289 26.7158C57.8638 27.374 57.584 27.998 57.2023 28.5592C56.5853 29.6054 55.9007 30.6104 55.1528 31.5676C54.689 32.2262 54.1189 32.8033 53.4657 33.2754C52.9971 33.6021 52.4406 33.7795 51.8691 33.7843C51.5326 33.7995 51.1974 33.7334 50.8918 33.5917C50.5863 33.4499 50.3195 33.2367 50.1141 32.97C49.6761 32.2995 49.462 31.5076 49.5026 30.7081C49.5026 30.4253 49.5026 30.2105 49.5026 30.0634C49.4992 29.9351 49.503 29.8067 49.5139 29.6789V29.6789ZM51.1898 21.5246C51.1994 21.3132 51.1263 21.1064 50.9859 20.9478C50.9122 20.874 50.8236 20.8166 50.726 20.7796C50.6284 20.7425 50.524 20.7266 50.4198 20.733C49.6275 20.8377 48.9059 21.2426 48.4043 21.864C47.5063 22.8639 46.7449 23.9781 46.1397 25.1777C45.4677 26.4188 44.8887 27.7078 44.4072 29.0343C44.0504 29.9112 43.8326 30.8385 43.7618 31.7825C43.7468 31.9439 43.7824 32.1059 43.8637 32.2462C43.9035 32.2898 43.9527 32.3237 44.0077 32.3453C44.0627 32.3669 44.1219 32.3755 44.1808 32.3706C44.5205 32.3706 45.0074 32.0765 45.6415 31.4658C46.3633 30.7466 47.0084 29.9545 47.5664 29.1021C48.5526 27.6218 49.416 26.0634 50.148 24.4425C50.6249 23.5211 50.9753 22.5396 51.1898 21.5246V21.5246Z" fill="#801FFF"/>
<path d="M64.1885 24.6464C63.2902 26.1543 62.2673 27.9902 61.1199 30.1541C59.7083 32.8157 58.6477 34.1464 57.9381 34.1464C57.6342 34.1722 57.3284 34.1314 57.0419 34.0269C56.7554 33.9223 56.4952 33.7565 56.2796 33.5411C56.0639 33.3257 55.8979 33.0658 55.7933 32.7797C55.6886 32.4936 55.6477 32.1881 55.6735 31.8845C55.7968 30.3036 56.0775 28.7389 56.5114 27.2136C57.05 25.0195 57.7618 22.8715 58.6402 20.7898C58.8203 20.2732 59.1056 19.7996 59.4781 19.3987C59.8008 19.1501 60.204 19.0292 60.6104 19.0594C61.0163 19.0479 61.4145 19.1712 61.7427 19.41C61.8888 19.4926 62.012 19.6103 62.101 19.7526C62.19 19.8948 62.242 20.0569 62.2523 20.2243C62.1689 20.5036 62.055 20.7729 61.9126 21.0273C60.4513 24.0297 59.4257 27.2247 58.8666 30.5161C60.4908 27.2761 62.2783 24.1204 64.2225 21.0612C65.5133 19.1612 66.4871 18.2112 67.1551 18.2112C67.7219 18.2162 68.2696 18.4159 68.7064 18.7767C68.9198 18.9199 69.0966 19.1112 69.2225 19.3351C69.3483 19.559 69.4198 19.8094 69.4311 20.0659C69.416 20.2366 69.3623 20.4017 69.2741 20.5487C69.1858 20.6956 69.0653 20.8206 68.9215 20.9142C68.5705 21.1969 68.3893 21.3326 68.378 21.3326C68.1824 21.696 68.0159 22.0741 67.8798 22.4636C67.642 23.0969 67.3816 23.8434 67.1098 24.7255C66.7475 25.9583 66.4531 27.1571 66.2266 28.2993C66.0409 29.136 65.931 29.9877 65.8983 30.844C65.8856 31.133 65.9319 31.4216 66.0342 31.6922C66.0617 31.7802 66.1155 31.8577 66.1884 31.9143C66.2612 31.9709 66.3496 32.0039 66.4418 32.0089C66.9853 32.0089 68.0346 30.6895 69.5896 28.0506C69.8613 27.5756 70.0765 27.2023 70.235 26.9196C70.3165 26.7911 70.3848 26.6547 70.4388 26.5124C70.6087 26.1166 70.8464 25.913 71.1408 25.913C71.4024 25.9589 71.6414 26.0902 71.8202 26.2862C72.1033 26.535 72.2505 26.75 72.2505 26.9196C72.0014 27.8837 71.5959 28.8006 71.0503 29.6339C70.3294 30.9772 69.4305 32.2173 68.378 33.3208C68.0684 33.6404 67.7089 33.9078 67.3137 34.1125C66.9633 34.2919 66.5751 34.3849 66.1814 34.3839C65.7688 34.3923 65.3612 34.2922 64.9995 34.0937C64.6379 33.8952 64.3347 33.6053 64.1206 33.253C63.5855 32.3318 63.3334 31.2738 63.3959 30.2107C63.4075 29.4532 63.4719 28.6974 63.5884 27.9487C63.7129 27.0214 63.962 25.9243 64.1885 24.6464Z" fill="#801FFF"/>
<path d="M76.983 29.6789C76.277 31.0534 75.3209 32.2845 74.1636 33.3093C73.3495 34.0745 72.2905 34.5272 71.1743 34.5873C70.8042 34.5992 70.4364 34.5246 70.1002 34.3695C69.7641 34.2144 69.4688 33.983 69.238 33.6938C68.7346 33.0494 68.4741 32.2488 68.502 31.4319C68.5264 30.0801 68.7633 28.7405 69.2041 27.4622C69.7279 25.9086 70.4228 24.4179 71.2762 23.0175C72.0084 21.6174 72.9732 20.3516 74.1296 19.274C74.8831 18.489 75.8979 18.0063 76.983 17.9169C77.4375 17.9123 77.8843 18.0336 78.2739 18.2675C78.7358 18.569 79.1388 18.9522 79.4628 19.3984C79.734 19.3141 80.01 19.2462 80.2894 19.1949C80.4838 19.1603 80.6807 19.1414 80.8782 19.1383C81.4173 19.1154 81.9506 19.2574 82.4068 19.5455C82.5826 19.6388 82.7307 19.7769 82.836 19.9457C82.9414 20.1144 83.0003 20.308 83.0069 20.5068C82.8653 21.1346 82.6286 21.7372 82.3049 22.2937C81.9086 23.0627 81.6028 23.6961 81.3764 24.205C80.7792 25.4879 80.2612 26.8061 79.8251 28.1521C79.5307 28.9578 79.3404 29.7977 79.259 30.6515C79.2434 30.8383 79.2786 31.0259 79.3609 31.1944C79.4028 31.2493 79.4581 31.2927 79.5215 31.3204C79.5849 31.3481 79.6543 31.3592 79.7232 31.3527C79.9836 31.3527 80.346 31.0926 80.8555 30.561C81.7143 29.5404 82.5193 28.4759 83.2673 27.3717C83.4711 27.0777 83.7202 26.7158 83.992 26.2408C84.2638 25.7658 85.6905 22.0788 85.8263 22.0788C85.9622 22.0788 88.5552 19.3984 88.374 19.1157C88.1928 18.833 87.0832 23.4925 85.498 26.7158C85.2655 27.3504 84.9854 27.9667 84.6601 28.5592C84.0512 29.6079 83.3702 30.6131 82.6219 31.5676C82.155 32.2236 81.5853 32.8002 80.9348 33.2754C80.4662 33.6021 79.9096 33.7795 79.3382 33.7843C78.9969 33.8074 78.6552 33.7463 78.3432 33.6062C78.0312 33.4662 77.7585 33.2516 77.5492 32.9813C77.1072 32.3121 76.8892 31.5202 76.9264 30.7194C76.9264 30.4366 76.9264 30.2217 76.9264 30.0747C76.9319 29.9412 76.9508 29.8086 76.983 29.6789V29.6789ZM78.6588 21.5246C78.6685 21.3132 78.5954 21.1064 78.455 20.9478C78.3813 20.874 78.2927 20.8166 78.1951 20.7796C78.0975 20.7425 77.9931 20.7266 77.8888 20.733C77.0966 20.8377 76.375 21.2426 75.8733 21.864C74.9754 22.8639 74.2139 23.9781 73.6087 25.1777C72.9368 26.4188 72.3578 27.7078 71.8763 29.0343C71.5194 29.9112 71.3017 30.8385 71.2309 31.7825C71.2158 31.9439 71.2515 32.1059 71.3328 32.2462C71.3714 32.2913 71.4205 32.3262 71.4758 32.3479C71.5311 32.3696 71.5909 32.3774 71.6499 32.3706C71.9896 32.3706 72.4764 32.0765 73.0992 31.4658C73.828 30.7499 74.4772 29.9574 75.0354 29.1021C76.0217 27.6218 76.8851 26.0634 77.6171 24.4425C78.1018 23.5222 78.4599 22.5407 78.6815 21.5246H78.6588Z" fill="#801FFF"/>
<path d="M203.122 25.551C201.366 25.698 199.555 25.8903 197.709 26.1504C195.863 26.4105 193.984 26.7159 192.048 27.0778C191.485 28.2298 190.986 29.4115 190.553 30.6177C189.126 34.5309 184.574 37.1886 182.208 37.1886C181.835 37.1342 181.488 36.9686 181.211 36.7136C181.042 36.5213 182.672 35.5827 184.393 34.5309C187.145 32.8457 187.315 29.5207 189.613 24.6689C191.912 19.817 194.833 14.3545 198.377 8.31516C201.321 3.27107 203.767 0.749023 205.715 0.749023C206.198 0.766276 206.674 0.873675 207.119 1.06569C207.662 1.26926 208.024 1.39367 208.251 1.45021C208.697 1.53865 209.12 1.71554 209.496 1.97045C209.604 2.06166 209.69 2.17635 209.747 2.30572C209.804 2.43508 209.831 2.5757 209.825 2.71689C209.761 3.12697 209.598 3.51524 209.349 3.84785C209.081 4.25955 208.868 4.70439 208.715 5.17109C208.048 7.99102 207.624 10.8628 207.447 13.7551C207.017 18.2789 206.802 23.0478 206.802 28.0618C206.802 28.6612 206.802 29.3285 206.858 30.0636C206.915 30.7987 206.858 31.1945 206.858 31.3415C206.887 31.6129 206.854 31.8872 206.763 32.1443C206.672 32.4015 206.524 32.6351 206.331 32.828C206.138 33.0209 205.904 33.1683 205.646 33.2595C205.389 33.3506 205.114 33.3831 204.843 33.3546C203.733 33.3546 203.148 31.3302 203.088 27.2814C203.156 26.535 203.133 25.9469 203.122 25.551ZM194.063 22.9498C195.682 22.7915 197.256 22.6671 198.774 22.5766C200.291 22.4861 201.717 22.4183 203.088 22.3843C203.246 18.7992 203.439 15.5307 203.688 12.5676C203.937 9.60447 204.254 6.91276 204.639 4.44726C200.834 10.4034 197.342 16.5528 194.176 22.8706L194.063 22.9498Z" fill="#801FFF"/>
<path d="M231.305 1.81212C232.508 2.10772 233.613 2.71199 234.51 3.5651C234.873 3.89185 235.165 4.28896 235.37 4.73227C235.574 5.17558 235.686 5.6558 235.699 6.14369C235.713 6.77906 235.495 7.39794 235.087 7.88539C234.925 8.10681 234.714 8.2882 234.47 8.41563C234.227 8.54305 233.958 8.61312 233.683 8.6205C233.484 8.62997 233.286 8.58687 233.109 8.49553C232.932 8.40419 232.783 8.26785 232.675 8.10027C232.35 7.41028 232.155 6.66665 232.098 5.9062C232.065 5.68575 231.985 5.47518 231.861 5.28947C231.738 5.10376 231.575 4.94746 231.385 4.83177C230.928 4.52262 230.385 4.36441 229.833 4.3794C228.523 4.46653 227.276 4.9743 226.278 5.82703C224.749 7.04511 223.396 8.46855 222.258 10.0568C220.356 12.5667 218.83 15.3404 217.729 18.2903C216.684 20.8589 216.109 23.5938 216.03 26.3653C215.939 27.8284 216.39 29.2739 217.299 30.4255C217.736 30.9092 218.276 31.2891 218.88 31.5376C219.483 31.7861 220.134 31.8969 220.786 31.8618C221.817 31.8479 222.838 31.6645 223.809 31.3189C225.03 30.8912 226.2 30.3298 227.297 29.6451C227.863 29.3058 228.61 28.7969 229.562 28.1296C230.102 27.6356 230.761 27.289 231.475 27.1231C231.549 27.1248 231.621 27.1455 231.684 27.1832C231.748 27.2208 231.801 27.2741 231.837 27.3379C231.945 27.4938 232.001 27.68 231.996 27.8695C231.921 28.3985 231.679 28.8897 231.305 29.2719C230.729 29.969 230.076 30.5988 229.358 31.1493C228.107 32.1546 226.728 32.9911 225.259 33.6374C223.555 34.4034 221.673 34.6831 219.82 34.4455C217.967 34.208 216.217 33.4624 214.762 32.2916C213.924 31.5345 213.263 30.6013 212.829 29.5591C212.394 28.5168 212.196 27.3913 212.249 26.2635C212.415 23.3237 213.125 20.44 214.343 17.7587C215.907 14.018 217.846 10.4448 220.129 7.0937C221.308 5.25882 222.695 3.56623 224.262 2.04962C225.115 1.10119 226.28 0.490972 227.546 0.330566C228.157 0.342481 228.76 0.469075 229.324 0.703769C230.024 0.99832 230.688 1.37009 231.305 1.81212Z" fill="#801FFF"/>
</svg>
